PathFileType	4	(X/Y/Z)	/Users/itak/Documents/Research/Walk-IL/dataset/trc/00479_00167.trc
DataRate	CameraRate	NumFrames	NumMarkers	Units	OrigDataRate	OrigDataStartFrame	OrigNumFrames
100.000000	100.000000	4	53	mm	100.000000	529	605
Frame#	Time	RPSI			LPSI			L3			STRN			T10			C7			CLAV			RBAK			LBAK			LSHO			LUPA			LAEL			LAOL			LWTS			LWPS			LFRA			LIFD			LHPS			LHTS			RSHO			RUPA			RAEL			RAOL			RWTS			RWPS			RFRA			RIFD			RHTS			RHPS			RBHD			LFHD			RFHD			LBHD			LHIP			RHIP			RASI			LASI			LKNE			LTHI			LANK			LTIP			LTOE			LMT1			LMT5			LHEE			RKNE			RTHI			RANK			RTIP			RTOE			RMT1			RMT5			RHEE			
		X1	Y1	Z1	X2	Y2	Z2	X3	Y3	Z3	X4	Y4	Z4	X5	Y5	Z5	X6	Y6	Z6	X7	Y7	Z7	X8	Y8	Z8	X9	Y9	Z9	X10	Y10	Z10	X11	Y11	Z11	X12	Y12	Z12	X13	Y13	Z13	X14	Y14	Z14	X15	Y15	Z15	X16	Y16	Z16	X17	Y17	Z17	X18	Y18	Z18	X19	Y19	Z19	X20	Y20	Z20	X21	Y21	Z21	X22	Y22	Z22	X23	Y23	Z23	X24	Y24	Z24	X25	Y25	Z25	X26	Y26	Z26	X27	Y27	Z27	X28	Y28	Z28	X29	Y29	Z29	X30	Y30	Z30	X31	Y31	Z31	X32	Y32	Z32	X33	Y33	Z33	X34	Y34	Z34	X35	Y35	Z35	X36	Y36	Z36	X37	Y37	Z37	X38	Y38	Z38	X39	Y39	Z39	X40	Y40	Z40	X41	Y41	Z41	X42	Y42	Z42	X43	Y43	Z43	X44	Y44	Z44	X45	Y45	Z45	X46	Y46	Z46	X47	Y47	Z47	X48	Y48	Z48	X49	Y49	Z49	X50	Y50	Z50	X51	Y51	Z51	X52	Y52	Z52	X53	Y53	Z53	

530	5.29	-472.7029113769531	958.0718994140625	-361.8966674804688	-496.5142822265625	953.897216796875	-221.355712890625	-502.4649047851562	1066.347534179688	-297.6235046386719	-787.725830078125	1248.513305664062	-324.0910949707031	-499.3817138671875	1190.567749023438	-282.3970031738281	-581.7892456054688	1456.284423828125	-290.5002746582031	-758.7213745117188	1362.91064453125	-309.8087463378906	-495.5472412109375	1345.621337890625	-377.9891357421875	-559.72509765625	1404.420288085938	-189.3516082763672	-673.7938842773438	1416.540283203125	-130.0767822265625	-683.6581420898438	1301.3447265625	-31.73400497436523	-727.4374389648438	1095.286499023438	11.64436817169189	-639.8997192382812	1066.859497070312	-38.1104621887207	-823.0758666992188	900.0209350585938	-29.17237854003906	-787.5773315429688	886.3292846679688	34.90605545043945	-759.5433349609375	1011.543334960938	24.12278938293457	-849.9043579101562	744.7450561523438	-1.865546345710754	-804.5198974609375	811.852783203125	42.73135757446289	-850.6255493164062	818.7736206054688	-12.79709625244141	-620.0445556640625	1434.633422851562	-457.8641967773438	-582.655517578125	1382.607421875	-531.3201904296875	-552.8639526367188	1107.817260742188	-620.547607421875	-512.7626953125	1079.66015625	-572.7119140625	-696.4088134765625	923.783203125	-618.0069580078125	-626.1583251953125	901.23828125	-668.127197265625	-563.1757202148438	1051.487670898438	-637.7955322265625	-725.3084106445312	771.8005981445312	-643.2525634765625	-727.4132690429688	832.893798828125	-641.7744140625	-658.8338623046875	819.3003540039062	-676.6784057617188	-749.1450805664062	1645.609375	-369.3651733398438	-849.5924682617188	1598.965209960938	-194.6665191650391	-874.3804931640625	1609.208618164062	-322.5890197753906	-702.7592163085938	1641.931396484375	-197.9568634033203	-654.5958862304688	857.033447265625	-131.5025787353516	-576.309326171875	876.015625	-528.8917846679688	-680.6624755859375	918.9823608398438	-473.1361083984375	-735.043212890625	900.7140502929688	-225.1078033447266	-751.4148559570312	452.8108215332031	-168.4447174072266	-743.0783081054688	606.4904174804688	-149.1184997558594	-694.6171264648438	41.72364044189453	-163.5341186523438	-753.8499755859375	299.4341735839844	-152.7921295166016	-926.0690307617188	44.24930953979492	-242.9644317626953	-847.2464599609375	50.08084487915039	-267.51513671875	-849.6937866210938	46.19990921020508	-154.2131652832031	-646.5211181640625	47.13127517700195	-225.8143310546875	-718.5761108398438	519.8694458007812	-588.7275390625	-652.1954956054688	764.1873168945312	-566.78369140625	-488.2107849121094	140.9006042480469	-584.6422119140625	-662.8118896484375	385.1390075683594	-603.3098754882812	-689.4539794921875	60.16552352905273	-563.59033203125	-638.061279296875	87.87123870849609	-521.3505249023438	-603.3285522460938	84.22817230224609	-620.3873291015625	-435.8917541503906	166.4125518798828	-531.8303833007812	
531	5.3	-476.5222473144531	959.3772583007812	-362.9669494628906	-499.6020812988281	955.0004272460938	-222.3326110839844	-506.4315185546875	1067.040283203125	-297.7840576171875	-791.3900146484375	1249.274047851562	-323.1844787597656	-503.1944274902344	1191.203491210938	-281.8612670898438	-585.4633178710938	1456.962524414062	-289.7428588867188	-762.42333984375	1363.68994140625	-309.0421447753906	-499.3427429199219	1346.32373046875	-377.1463623046875	-563.3977661132812	1405.072143554688	-188.5342559814453	-677.3536987304688	1417.574951171875	-129.4247589111328	-687.8385009765625	1302.84423828125	-30.75180816650391	-733.3544311523438	1097.433837890625	13.49116897583008	-646.5665893554688	1067.76318359375	-36.86979675292969	-832.5155639648438	903.8084716796875	-26.17438888549805	-796.3649291992188	889.5021362304688	37.37020492553711	-766.6326904296875	1014.187805175781	26.29305458068848	-861.9259643554688	749.12890625	1.97943103313446	-814.5807495117188	815.4810791015625	45.62207794189453	-861.3699951171875	823.1481323242188	-9.191339492797852	-623.7911987304688	1435.396362304688	-457.0782775878906	-586.3021240234375	1383.391357421875	-530.4759521484375	-556.2152709960938	1108.516845703125	-619.4653930664062	-516.1301879882812	1080.42333984375	-571.5391845703125	-699.8150024414062	924.4916381835938	-616.891845703125	-629.4605102539062	901.8878784179688	-666.8511962890625	-566.5189819335938	1052.1708984375	-636.6314086914062	-728.718017578125	772.4720458984375	-641.9559326171875	-730.7882080078125	833.5648193359375	-640.6218872070312	-662.2967529296875	819.9014892578125	-675.2702026367188	-751.75341796875	1646.430419921875	-369.2470703125	-852.9567260742188	1600.960083007812	-194.6921997070312	-877.3226318359375	1610.899536132812	-322.7053833007812	-705.8788452148438	1643.090454101562	-197.7140197753906	-656.4669189453125	857.4067993164062	-131.7028350830078	-580.9654541015625	877.37451171875	-529.5554809570312	-685.203369140625	919.9698486328125	-473.1462707519531	-737.9578857421875	901.0038452148438	-224.7718963623047	-750.8054809570312	452.7676086425781	-168.2401123046875	-743.081787109375	606.43408203125	-148.9394073486328	-694.56884765625	41.73807907104492	-163.5883941650391	-753.2967529296875	299.5111694335938	-152.7096252441406	-926.068115234375	44.28425598144531	-242.8860015869141	-847.2560424804688	50.10560607910156	-267.4484252929688	-849.6766357421875	46.17947006225586	-154.1622009277344	-646.4826049804688	47.12227249145508	-225.9046936035156	-723.16064453125	519.9467163085938	-587.7971801757812	-657.0654907226562	765.3175659179688	-566.7230834960938	-506.5376281738281	132.6383056640625	-589.3963012695312	-671.6693115234375	383.263671875	-603.8489990234375	-710.5662841796875	60.30958557128906	-565.6760864257812	-657.3177490234375	85.42580413818359	-524.1694946289062	-624.335205078125	81.05105590820312	-623.5955200195312	-452.2613220214844	155.4491119384766	-537.31494140625	
532	5.31	-480.38916015625	960.602783203125	-364.2004089355469	-502.6760864257812	956.0118408203125	-223.4550933837891	-510.4278869628906	1067.637329101562	-298.1590881347656	-794.9896240234375	1249.970336914062	-322.34033203125	-506.9398803710938	1191.744506835938	-281.5419921875	-588.9866943359375	1457.560302734375	-289.1453247070312	-766.02001953125	1364.400756835938	-308.3412475585938	-503.0497741699219	1346.899536132812	-376.5034484863281	-566.8965454101562	1405.627563476562	-187.8886413574219	-680.6919555664062	1418.523803710938	-128.8839263916016	-691.7293090820312	1304.262573242188	-29.84849166870117	-738.936767578125	1099.483276367188	15.27309322357178	-652.9462280273438	1068.599731445312	-35.72376251220703	-841.72021484375	907.64794921875	-23.31465911865234	-804.8692016601562	892.5913696289062	39.61966705322266	-773.4056396484375	1016.761413574219	28.36077880859375	-873.7260131835938	753.57080078125	5.422564029693604	-824.3526000976562	819.0090942382812	48.16819381713867	-871.8668212890625	827.5809326171875	-5.836721897125244	-627.4569702148438	1436.036865234375	-456.4289855957031	-589.9217529296875	1384.044555664062	-529.7905883789062	-559.6367797851562	1109.104248046875	-618.6305541992188	-519.5161743164062	1081.092163085938	-570.6458740234375	-703.1318359375	924.9417114257812	-615.8938598632812	-632.7274780273438	902.3633422851562	-665.8115844726562	-569.9108276367188	1052.740478515625	-635.7183837890625	-731.842041015625	772.8329467773438	-640.6444702148438	-733.9705200195312	833.9010009765625	-639.4401245117188	-665.63623046875	820.2866821289062	-673.9768676757812	-754.2134399414062	1647.175415039062	-369.2540283203125	-856.115966796875	1602.909301757812	-194.8234405517578	-880.0988159179688	1612.51513671875	-322.9256286621094	-708.8218383789062	1644.211547851562	-197.5942687988281	-658.38720703125	857.7576293945312	-132.0379791259766	-585.6824951171875	878.5637817382812	-530.2853393554688	-689.9335327148438	920.84765625	-473.3249206542969	-740.828125	901.2691040039062	-224.5349578857422	-750.22216796875	452.7169494628906	-168.1157989501953	-743.1461181640625	606.3851928710938	-148.8453369140625	-694.521728515625	41.75554275512695	-163.6433715820312	-752.7466430664062	299.589599609375	-152.6805572509766	-926.0665283203125	44.31781768798828	-242.8120269775391	-847.2640991210938	50.12678146362305	-267.3842163085938	-849.6563720703125	46.16025924682617	-154.1128845214844	-646.4417724609375	47.10379791259766	-226.0048522949219	-727.0155029296875	519.4888305664062	-586.6920166015625	-661.751708984375	766.1025390625	-566.5840454101562	-525.314697265625	124.1786575317383	-594.5435180664062	-680.310791015625	381.0061645507812	-604.3321533203125	-731.6892700195312	60.63488006591797	-567.2435913085938	-676.4960327148438	83.03086090087891	-526.7479858398438	-645.713134765625	77.94096374511719	-626.6443481445312	-468.9793395996094	144.15966796875	-543.4664306640625	
533	5.32	-484.3108825683594	961.7489013671875	-365.5871887207031	-505.7314758300781	956.9151000976562	-224.7158203125	-514.4302978515625	1068.147827148438	-298.75732421875	-798.5285034179688	1250.59619140625	-321.5581665039062	-510.6064147949219	1192.195068359375	-281.45263671875	-592.3630981445312	1458.072998046875	-288.7135009765625	-769.5142822265625	1365.03564453125	-307.7048034667969	-506.6693420410156	1347.359252929688	-376.0765686035156	-570.225830078125	1406.082275390625	-187.4230194091797	-683.8170166015625	1419.365600585938	-128.4548797607422	-695.3366088867188	1305.572387695312	-29.03878974914551	-744.2052001953125	1101.420654296875	16.97609901428223	-659.0390014648438	1069.350952148438	-34.64260864257812	-850.6673583984375	911.5126342773438	-20.62640762329102	-813.115966796875	895.5857543945312	41.65659332275391	-779.8779907226562	1019.251586914062	30.30972671508789	-885.283447265625	758.04638671875	8.436607360839844	-833.861328125	822.4223022460938	50.36987686157227	-882.1016235351562	832.0475463867188	-2.764959335327148	-631.05517578125	1436.558471679688	-455.9223022460938	-593.5288696289062	1384.569091796875	-529.2752075195312	-563.1343383789062	1109.57763671875	-618.0318603515625	-522.9359130859375	1081.66748046875	-570.0211791992188	-706.3470458984375	925.1333618164062	-615.02001953125	-635.9429321289062	902.6546630859375	-664.993896484375	-573.3511962890625	1053.189819335938	-635.0480346679688	-734.7074584960938	772.89501953125	-639.348876953125	-736.9686889648438	833.9154663085938	-638.2584228515625	-668.8319702148438	820.4655151367188	-672.8248901367188	-756.5316162109375	1647.83837890625	-369.3800964355469	-859.0670166015625	1604.803588867188	-195.0448150634766	-882.7144775390625	1614.0595703125	-323.2314147949219	-711.5758666992188	1645.275024414062	-197.5968475341797	-660.369873046875	858.0877685546875	-132.4974365234375	-590.4673461914062	879.5776977539062	-531.0628662109375	-694.8450927734375	921.6181030273438	-473.6495666503906	-743.67333984375	901.51318359375	-224.3822631835938	-749.695556640625	452.6521606445312	-168.0794372558594	-743.3136596679688	606.3375854492188	-148.8459320068359	-694.4754638671875	41.77634048461914	-163.6994476318359	-752.2208862304688	299.6651916503906	-152.7108154296875	-926.0639038085938	44.34996032714844	-242.7437286376953	-847.2691040039062	50.14359664916992	-267.3252868652344	-849.63232421875	46.14429092407227	-154.0667572021484	-646.3983764648438	47.07582092285156	-226.1144256591797	-730.1575927734375	518.5184936523438	-585.3836059570312	-666.2811279296875	766.5211791992188	-566.3551635742188	-544.467041015625	115.7294158935547	-600.0216064453125	-688.7304077148438	378.4783630371094	-604.716796875	-752.6434936523438	61.21713638305664	-568.2557983398438	-695.48974609375	80.79013824462891	-529.0191650390625	-667.3257446289062	75.04056549072266	-629.462646484375	-486.0243225097656	132.7818145751953	-550.2320556640625	
